<?xml version="1.0" encoding="iso-8859-1"?>
<!-- Generator: Adobe Illustrator 19.0.0, SVG Export Plug-In . SVG Version: 6.00 Build 0)  -->
<svg version="1.1" id="Capa_1" xmlns="http://www.w3.org/2000/svg" xmlns:xlink="http://www.w3.org/1999/xlink" x="0px" y="0px"
	 viewBox="0 0 448 448" style="enable-background:new 0 0 448 448;" xml:space="preserve">
<path style="fill:#F3AF3E;" d="M144,384l-48,40l9.224-71.432L112,352l8-6.632L154,378L144,384z"/>
<path style="fill:#B3E4E8;" d="M176,40c0-22.091-17.909-40-40-40h-16C97.909,0,80,17.909,80,40c-22.091,0-40,17.909-40,40
	s17.909,40,40,40h96c22.091,0,40-17.909,40-40S198.091,40,176,40z"/>
<path style="fill:#8ACED8;" d="M416,384c0-17.673-14.327-32-32-32s-32,14.327-32,32c-17.673,0-32,14.327-32,32s14.327,32,32,32h64
	c17.673,0,32-14.327,32-32S433.673,384,416,384z"/>
<g>
	<path style="fill:#EA6B65;" d="M408,184h16v16h-16V184z"/>
	<path style="fill:#EA6B65;" d="M376,216h16v16h-16V216z"/>
	<path style="fill:#EA6B65;" d="M344,240h16v16h-16V240z"/>
</g>
<path style="fill:#EA9D2D;" d="M0,240l64,64l32,120l16-72l72,72l208-304L0,240z"/>
<g>
	<path style="fill:#FBB540;" d="M392,120L64,304L0,240L392,120z"/>
	<path style="fill:#FBB540;" d="M184,424l-72-72l280-232L184,424z"/>
</g>
<g>
</g>
<g>
</g>
<g>
</g>
<g>
</g>
<g>
</g>
<g>
</g>
<g>
</g>
<g>
</g>
<g>
</g>
<g>
</g>
<g>
</g>
<g>
</g>
<g>
</g>
<g>
</g>
<g>
</g>
</svg>
