<?xml version="1.0" encoding="iso-8859-1"?>
<!-- Generator: Adobe Illustrator 19.0.0, SVG Export Plug-In . SVG Version: 6.00 Build 0)  -->
<svg version="1.1" id="Capa_1" xmlns="http://www.w3.org/2000/svg" xmlns:xlink="http://www.w3.org/1999/xlink" x="0px" y="0px"
	 viewBox="0 0 456 456" style="enable-background:new 0 0 456 456;" xml:space="preserve">
<path style="fill:#F9E0A0;" d="M416,340H64l40-224h352L416,340z"/>
<path style="fill:#EAC25E;" d="M64,340l192-136l160,136H64z"/>
<g>
	<path style="fill:#69B0BB;" d="M72,132H8c-4.418,0-8-3.582-8-8s3.582-8,8-8h64c4.418,0,8,3.582,8,8S76.418,132,72,132z"/>
	<path style="fill:#69B0BB;" d="M56,180H8c-4.418,0-8-3.582-8-8s3.582-8,8-8h48c4.418,0,8,3.582,8,8S60.418,180,56,180z"/>
	<path style="fill:#69B0BB;" d="M40,228H8c-4.418,0-8-3.582-8-8s3.582-8,8-8h32c4.418,0,8,3.582,8,8S44.418,228,40,228z"/>
	<path style="fill:#69B0BB;" d="M24,276H8c-4.418,0-8-3.582-8-8s3.582-8,8-8h16c4.418,0,8,3.582,8,8S28.418,276,24,276z"/>
</g>
<path style="fill:#F4CA62;" d="M104,116l136,152l216-152H104z"/>
<g>
</g>
<g>
</g>
<g>
</g>
<g>
</g>
<g>
</g>
<g>
</g>
<g>
</g>
<g>
</g>
<g>
</g>
<g>
</g>
<g>
</g>
<g>
</g>
<g>
</g>
<g>
</g>
<g>
</g>
</svg>
