<svg height="512" viewBox="0 0 512 512" width="512" xmlns="http://www.w3.org/2000/svg"><rect fill="#35e0d1" height="432" rx="16" width="256" x="176" y="41"/><path d="m72 241a104 104 0 1 1 144 96v40l-61.785-34.325a104.01 104.01 0 0 1 -82.215-101.675z" fill="#fdb62f"/><path d="m120 209h112v80h-112z" fill="#cbcbcb"/><path d="m232 209-46.115 36.233a16 16 0 0 1 -19.77 0l-46.115-36.233z" fill="#f8f8f8"/><path d="m432 105h-256v-48a16 16 0 0 1 16-16h224a16 16 0 0 1 16 16z" fill="#eaeae8"/><path d="m320 81h-32a8 8 0 0 1 0-16h32a8 8 0 0 1 0 16z" fill="#cbcbcb"/><path d="m176 409h256a0 0 0 0 1 0 0v48a16 16 0 0 1 -16 16h-224a16 16 0 0 1 -16-16v-48a0 0 0 0 1 0 0z" fill="#eaeae8"/><path d="m320 449h-32a8 8 0 0 1 0-16h32a8 8 0 0 1 0 16z" fill="#cbcbcb"/><path d="m360 81h-8a8 8 0 0 1 0-16h8a8 8 0 0 1 0 16z" fill="#cbcbcb"/><g fill="#2bc9c4"><path d="m304 249h16v16h-16z"/><path d="m336 249h16v16h-16z"/><path d="m368 249h16v16h-16z"/></g></svg>