<svg height="448pt" viewBox="0 -16 448 448" width="448pt" xmlns="http://www.w3.org/2000/svg"><path d="m416 280h-384v-248c0-17.671875 14.328125-32 32-32h320c17.671875 0 32 14.328125 32 32zm0 0" fill="#aae5c8"/><path d="m0 272h448v16c0 26.507812-21.492188 48-48 48h-352c-26.507812 0-48-21.492188-48-48zm0 0" fill="#eaeae8"/><path d="m275.503906 304h-103.007812c-7.34375.003906-13.746094-4.996094-15.527344-12.121094l-4.96875-19.878906h144l-4.96875 19.878906c-1.78125 7.125-8.183594 12.125-15.527344 12.121094zm0 0" fill="#dbdbdb"/><path d="m264 56h32v56h-32zm0 0" fill="#6cbae5"/><path d="m296 32h32v80h-32zm0 0" fill="#e8b35c"/><path d="m328 72h32v40h-32zm0 0" fill="#e06661"/><path d="m384 120h-144c-4.417969 0-8-3.582031-8-8s3.582031-8 8-8h144c4.417969 0 8 3.582031 8 8s-3.582031 8-8 8zm0 0" fill="#85bc94"/><path d="m192 96c0-35.347656-28.652344-64-64-64s-64 28.652344-64 64 28.652344 64 64 64v-64zm0 0" fill="#e8b35c"/><path d="m192 96h-64v64c35.347656 0 64-28.652344 64-64zm0 0" fill="#6cbae5"/><g fill="#85bc94"><path d="m312 160h48v16h-48zm0 0"/><path d="m312 192h48v16h-48zm0 0"/><path d="m88 224h56v16h-56zm0 0"/><path d="m88 192h48v16h-48zm0 0"/></g><path d="m312.015625 192c0 48.601562-39.398437 88-88 88s-88-39.398438-88-88 39.398437-88 88-88 88 39.398438 88 88zm0 0" fill="#b3e4e8"/><path d="m208 272h32v128c0 8.835938-7.164062 16-16 16s-16-7.164062-16-16zm0 0" fill="#a8a8a8"/><path d="m208 302.441406c10.574219 1.976563 21.421875 1.996094 32 .054688v-30.496094h-32zm0 0" fill="#9c9c9c"/><path d="m224 416c-8.835938 0-16-7.164062-16-16v-64h32v64c0 8.835938-7.164062 16-16 16zm0 0" fill="#8f563b"/><path d="m224.207031 288c-6.625-.007812-13.230469-.691406-19.71875-2.039062-49.714843-10.445313-82.542969-57.992188-74.695312-108.179688 7.847656-50.191406 53.621093-85.445312 104.148437-80.21875 50.53125 5.226562 88.117188 49.105469 85.523438 99.839844s-44.457032 90.550781-95.257813 90.597656zm-.207031-176c-42.058594.011719-76.929688 32.585938-79.792969 74.550781-2.867187 41.960938 27.25 78.976563 68.917969 84.703125 41.667969 5.730469 80.65625-21.785156 89.21875-62.964844 4.878906-23.570312-1.101562-48.085937-16.296875-66.757812-15.191406-18.671875-37.976563-29.515625-62.046875-29.53125zm0 0" fill="#8aced8"/><path d="m236.441406 189.265625-17.6875-8.839844c-1.679687-.839843-2.738281-2.550781-2.738281-4.425781s1.058594-3.585938 2.738281-4.425781c3.3125-1.652344 7.210938-1.652344 10.527344 0l7.199219 3.585937c3.953125 1.976563 8.761719.371094 10.734375-3.585937 1.976562-3.953125.371094-8.757813-3.582032-10.734375l-7.160156-3.574219c-1.425781-.660156-2.902344-1.195313-4.417968-1.601563v-11.664062h-16.054688v11.671875c-1.519531.40625-2.996094.941406-4.425781 1.601563-7.09375 3.550781-11.570313 10.800781-11.570313 18.734374 0 7.933594 4.476563 15.183594 11.570313 18.734376l17.683593 8.84375c1.675782.835937 2.734376 2.546874 2.734376 4.421874s-1.058594 3.585938-2.734376 4.425782c-3.324218 1.636718-7.21875 1.636718-10.539062 0l-7.160156-3.585938c-3.953125-1.976562-8.757813-.371094-10.734375 3.585938-1.976563 3.953125-.371094 8.757812 3.582031 10.734375l7.152344 3.574219c1.429687.660156 2.90625 1.195312 4.425781 1.601562v11.65625h16v-11.671875c1.519531-.410156 3-.945313 4.429687-1.601563 7.097657-3.550781 11.574219-10.800781 11.574219-18.734374 0-7.933594-4.476562-15.183594-11.574219-18.734376zm0 0" fill="#6b9777"/></svg>