<svg height="456pt" viewBox="-55 0 456 456" width="456pt" xmlns="http://www.w3.org/2000/svg"><path d="m288 192h24v192h-24zm0 0" fill="#f6bb92"/><path d="m264 456h-168v-48h184zm0 0" fill="#eeb58e"/><path d="m168 424h16v32h-16zm0 0" fill="#bd9070"/><path d="m96 0h160c17.671875 0 32 14.328125 32 32v360c0 17.671875-14.328125 32-32 32h-160c-17.671875 0-32-14.328125-32-32v-360c0-17.671875 14.328125-32 32-32zm0 0" fill="#aae5c8"/><path d="m201.753906 32h-51.507812c-3.667969 0-6.867188-2.496094-7.757813-6.054688l-6.488281-25.945312h80l-6.488281 25.945312c-.890625 3.558594-4.089844 6.054688-7.757813 6.054688zm0 0" fill="#ebebeb"/><path d="m64 376h224v16c0 17.671875-14.328125 32-32 32h-160c-17.671875 0-32-14.328125-32-32zm0 0" fill="#ebebeb"/><g fill="#f6bb92"><path d="m273.410156 198.789062 34.875-19.589843c11.558594-6.488281 26.1875-2.382813 32.679688 9.175781 6.488281 11.554688 2.382812 26.1875-9.175782 32.675781l-34.875 19.589844c-11.554687 6.488281-26.1875 2.382813-32.675781-9.171875-6.492187-11.558594-2.386719-26.1875 9.171875-32.679688zm0 0"/><path d="m273.003906 254.066406 34.875-19.585937c11.558594-6.492188 26.1875-2.386719 32.679688 9.171875 6.492187 11.554687 2.382812 26.1875-9.171875 32.675781l-34.875 19.589844c-11.558594 6.492187-26.1875 2.382812-32.679688-9.171875-6.492187-11.558594-2.382812-26.1875 9.171875-32.679688zm0 0"/><path d="m275.980469 307.515625 34.875-19.589844c11.558593-6.492187 26.1875-2.382812 32.679687 9.171875 6.492188 11.558594 2.382813 26.1875-9.171875 32.679688l-34.875 19.585937c-11.558593 6.492188-26.1875 2.386719-32.679687-9.171875-6.492188-11.554687-2.382813-26.1875 9.171875-32.675781zm0 0"/><path d="m275.574219 362.664062 34.875-19.585937c11.554687-6.492187 26.1875-2.382813 32.679687 9.171875 6.488282 11.558594 2.382813 26.1875-9.175781 32.679688l-34.875 19.585937c-11.554687 6.492187-26.1875 2.386719-32.675781-9.171875-6.492188-11.554688-2.386719-26.1875 9.171875-32.679688zm0 0"/></g><path d="m240 272c0 35.347656-28.652344 64-64 64s-64-28.652344-64-64 28.652344-64 64-64 64 28.652344 64 64zm0 0" fill="#fbb540"/><path d="m188.425781 269.265625-17.691406-8.839844c-1.675781-.839843-2.734375-2.550781-2.734375-4.425781s1.058594-3.585938 2.734375-4.425781c3.320313-1.644531 7.21875-1.644531 10.539063 0l7.160156 3.585937c3.953125 1.976563 8.757812.371094 10.734375-3.585937 1.976562-3.953125.371093-8.757813-3.582031-10.734375l-7.203126-3.574219c-1.421874-.660156-2.898437-1.195313-4.414062-1.601563v-11.664062h-15.96875v11.671875c-1.519531.40625-2.996094.941406-4.425781 1.601563-7.09375 3.550781-11.570313 10.800781-11.570313 18.734374 0 7.933594 4.476563 15.183594 11.570313 18.734376l17.691406 8.84375c1.675781.835937 2.734375 2.546874 2.734375 4.421874s-1.058594 3.585938-2.734375 4.425782c-3.320313 1.644531-7.21875 1.644531-10.539063 0l-7.160156-3.585938c-3.953125-1.976562-8.757812-.371094-10.734375 3.585938-1.976562 3.953125-.371093 8.757812 3.582031 10.734375l7.160157 3.574219c1.425781.660156 2.902343 1.195312 4.417969 1.601562v11.65625h16v-11.671875c1.515624-.40625 2.996093-.941406 4.421874-1.601563 7.097657-3.550781 11.574219-10.800781 11.574219-18.734374 0-7.933594-4.476562-15.183594-11.574219-18.734376zm0 0" fill="#da922a"/><path d="m120 104h32v56h-32zm0 0" fill="#6b9777"/><path d="m192 104h32v56h-32zm0 0" fill="#6b9777"/><path d="m240 224h-128c-4.417969 0-8-3.582031-8-8s3.582031-8 8-8h128c4.417969 0 8 3.582031 8 8s-3.582031 8-8 8zm0 0" fill="#85bc94"/><path d="m81.800781 329.800781 32.542969-32.554687c12.414062-12.449219 13.105469-32.371094 1.585938-45.652344-11.519532-13.28125-31.339844-15.410156-45.417969-4.882812l-57.097657 42.824218c-7.425781 5.570313-12.207031 13.972656-13.207031 23.199219h-.207031v71.265625c0 8 48 72 48 72h72v-54.222656c0-21.628906-8.59375-42.371094-23.886719-57.664063zm0 0" fill="#f6bb92"/><path d="m240 112h-128v-24l64-24 64 24zm0 0" fill="#85bc94"/><path d="m112 152h128v32h-128zm0 0" fill="#85bc94"/></svg>