<svg height="512pt" viewBox="0 -21 512.00002 512" width="512pt" xmlns="http://www.w3.org/2000/svg"><path d="m373.621094 470.488281h-318.269532c-30.570312 0-55.351562-24.785156-55.351562-55.351562v-276.757813c0-30.570312 24.78125-55.351562 55.351562-55.351562h332.109376c30.570312 0 55.351562 24.78125 55.351562 55.351562v262.917969c0 38.210937-30.980469 69.191406-69.191406 69.191406zm0 0" fill="#ea9d2d"/><path d="m0 415.136719v-27.675781l221.40625-138.378907 221.40625 138.378907v13.835937c0 38.210937-30.980469 69.191406-69.191406 69.191406h-318.269532c-30.570312 0-55.351562-24.785156-55.351562-55.351562zm0 0" fill="#da922a"/><path d="m0 138.378906v41.511719l169.042969 137.355469c30.507812 24.792968 74.21875 24.792968 104.722656 0l169.046875-137.355469v-41.511719c0-30.570312-24.78125-55.351562-55.351562-55.351562h-332.109376c-30.570312 0-55.351562 24.78125-55.351562 55.351562zm0 0" fill="#f3af3e"/><path d="m512 69.1875c0 38.214844-30.976562 69.191406-69.1875 69.191406-38.214844 0-69.191406-30.976562-69.191406-69.191406 0-38.210938 30.976562-69.1875 69.191406-69.1875 38.210938 0 69.1875 30.976562 69.1875 69.1875zm0 0" fill="#e06661"/></svg>