<svg height="456pt" viewBox="-4 0 456 456" width="456pt" xmlns="http://www.w3.org/2000/svg"><path d="m288 240h24v144h-24zm0 0" fill="#f6bb92"/><path d="m264 456h-176v-40l193.335938-8-9.335938 16zm0 0" fill="#eeb58e"/><path d="m168 416h16v40h-16zm0 0" fill="#cd9c7a"/><path d="m96 0h160c17.671875 0 32 14.328125 32 32v360c0 17.671875-14.328125 32-32 32h-160c-17.671875 0-32-14.328125-32-32v-360c0-17.671875 14.328125-32 32-32zm0 0" fill="#6cbae5"/><path d="m96 64h160v128h-160zm0 0" fill="#fbb540"/><path d="m96 96h160v32h-160zm0 0" fill="#a8a8a8"/><path d="m184 152h16v16h-16zm0 0" fill="#ea9d2d"/><path d="m216 152h16v16h-16zm0 0" fill="#ea9d2d"/><path d="m201.753906 32h-51.507812c-3.667969 0-6.867188-2.496094-7.757813-6.054688l-6.488281-25.945312h80l-6.488281 25.945312c-.890625 3.558594-4.089844 6.054688-7.757813 6.054688zm0 0" fill="#ebebeb"/><path d="m64 376h224v16c0 17.671875-14.328125 32-32 32h-160c-17.671875 0-32-14.328125-32-32zm0 0" fill="#ebebeb"/><path d="m272.71875 213.085938 34.730469-19.847657c11.507812-6.574219 26.167969-2.578125 32.746093 8.929688 6.574219 11.511719 2.574219 26.171875-8.933593 32.746093l-34.726563 19.847657c-11.511718 6.574219-26.171875 2.578125-32.746094-8.933594-6.578124-11.507813-2.578124-26.167969 8.929688-32.742187zm0 0" fill="#f6bb92"/><path d="m272.726562 268.375 34.726563-19.84375c11.511719-6.578125 26.171875-2.578125 32.746094 8.929688 6.578125 11.507812 2.578125 26.167968-8.929688 32.746093l-34.730469 19.84375c-11.507812 6.578125-26.167968 2.578125-32.746093-8.929687-6.574219-11.507813-2.578125-26.167969 8.933593-32.746094zm0 0" fill="#f6bb92"/><path d="m276.09375 321.792969 34.730469-19.847657c11.507812-6.574218 26.167969-2.578124 32.746093 8.929688 6.574219 11.507812 2.578126 26.171875-8.933593 32.746094l-34.726563 19.847656c-11.507812 6.574219-26.171875 2.574219-32.746094-8.933594-6.578124-11.507812-2.578124-26.167968 8.929688-32.742187zm0 0" fill="#f6bb92"/><path d="m276.097656 376.941406 34.730469-19.847656c11.507813-6.574219 26.167969-2.578125 32.742187 8.933594 6.578126 11.507812 2.578126 26.167968-8.929687 32.742187l-34.726563 19.847657c-11.511718 6.574218-26.171874 2.578124-32.746093-8.929688-6.578125-11.511719-2.578125-26.171875 8.929687-32.746094zm0 0" fill="#f6bb92"/><path d="m64 317.496094v-125.496094h-20.710938c-23.90625.003906-43.28515575 19.382812-43.289062 43.289062v108.710938l24 112h72v-77.214844c.003906-24.4375-11.949219-47.328125-32-61.289062zm0 0" fill="#f6bb92"/><path d="m232 352h-24v-16h16v-16h16v24c0 4.417969-3.582031 8-8 8zm0 0" fill="#aae5c8"/><path d="m240 248h-16v-16h-16v-16h24c4.417969 0 8 3.582031 8 8zm0 0" fill="#aae5c8"/><path d="m136 352h-24c-4.417969 0-8-3.582031-8-8v-24h16v16h16zm0 0" fill="#aae5c8"/><path d="m120 248h-16v-24c0-4.417969 3.582031-8 8-8h24v16h-16zm0 0" fill="#aae5c8"/><path d="m416 160h-128l32-32v-80c0-17.671875 14.328125-32 32-32h64c17.671875 0 32 14.328125 32 32v80c0 17.671875-14.328125 32-32 32zm0 0" fill="#aac16b"/><path d="m396.425781 85.265625-17.691406-8.800781c-1.675781-.835938-2.734375-2.550782-2.734375-4.425782s1.058594-3.585937 2.734375-4.421874c3.316406-1.648438 7.214844-1.648438 10.53125 0l7.160156 3.582031c3.953125 1.976562 8.757813.371093 10.734375-3.582031 1.976563-3.957032.371094-8.761719-3.585937-10.738282l-7.148438-3.574218c-1.429687-.660157-2.90625-1.195313-4.425781-1.601563v-11.703125h-16v11.671875c-1.519531.40625-2.996094.941406-4.425781 1.601563-7.09375 3.550781-11.570313 10.800781-11.570313 18.734374 0 7.933594 4.476563 15.183594 11.570313 18.734376l17.691406 8.800781c1.675781.835937 2.734375 2.550781 2.734375 4.425781s-1.058594 3.585938-2.734375 4.421875c-3.316406 1.648437-7.214844 1.648437-10.53125 0l-7.160156-3.582031c-3.953125-1.976563-8.757813-.371094-10.734375 3.582031-1.976563 3.957031-.371094 8.761719 3.585937 10.738281l7.148438 3.574219c1.429687.660156 2.90625 1.195313 4.425781 1.601563v11.695312h16v-11.671875c1.519531-.40625 2.996094-.941406 4.425781-1.601563 7.09375-3.550781 11.570313-10.800781 11.570313-18.734374 0-7.933594-4.476563-15.183594-11.570313-18.734376zm0 0" fill="#6b9777"/><g fill="#428dc5"><path d="m192 304h16v16h-16zm0 0"/><path d="m184 248h24v24h-24zm0 0"/><path d="m168 248h-32v24h16v-8h16zm0 0"/><path d="m136 304h16v16h-16zm0 0"/><path d="m136 280h16v16h-16zm0 0"/><path d="m200 280h-24v8h-16v16h8v16h16v-24h16zm0 0"/></g></svg>