<svg height="512" viewBox="0 0 512 512" width="512" xmlns="http://www.w3.org/2000/svg"><path d="m343.514 329.492 34.224 123.34a48.155 48.155 0 1 0 18.736-52.124l-22.127-79.779zm65.057 114.777a16 16 0 1 1 19.7 11.135 16 16 0 0 1 -19.7-11.135z" fill="#bb4033"/><path d="m24 80h432v240h-432z" fill="#54795e"/><path d="m283.373 128 49.158 192.505 31.409-4.676-58.179-227.829z" fill="#b9b9b9"/><path d="m56 47.52h432v240h-432z" fill="#6a9876"/><path d="m88 79.52h368v176h-368z" fill="#83bd93"/><path d="m56 47.52h88a0 0 0 0 1 0 0 88 88 0 0 1 -88 88 0 0 0 0 1 0 0v-88a0 0 0 0 1 0 0z" fill="#6a9876"/><path d="m56 199.52a88 88 0 0 1 88 88 0 0 0 0 1 0 0h-88a0 0 0 0 1 0 0v-88a0 0 0 0 1 0 0z" fill="#6a9876"/><path d="m400 47.52a88 88 0 0 1 88 88 0 0 0 0 1 0 0h-88a0 0 0 0 1 0 0v-88a0 0 0 0 1 0 0z" fill="#6a9876" transform="matrix(-1 0 0 -1 888 183.041)"/><path d="m400 199.52h88a0 0 0 0 1 0 0 88 88 0 0 1 -88 88 0 0 0 0 1 0 0v-88a0 0 0 0 1 0 0z" fill="#6a9876" transform="matrix(-1 0 0 -1 888 487.041)"/><path d="m344 264h16v16h-16z" fill="#fdb62f"/><path d="m344 232h16v16h-16z" fill="#fdb62f"/><path d="m420.506 128-49.158 192.505-31.408-4.676 58.178-227.829z" fill="#ebebeb"/><path d="m351.433 315.829 20.336 3.027 48.737-190.856-14.495-25.898z" fill="#f8f8f8"/><circle cx="288" cy="169.409" fill="#6a9876" r="56"/><g fill="#fdb62f"><path d="m344 168h16v16h-16z"/><path d="m344 136h16v16h-16z"/><path d="m344 104h16v16h-16z"/><path d="m344 200h16v16h-16z"/><path d="m344 72h16v16h-16z"/><path d="m344 40h16v16h-16z"/></g><path d="m329.167 320.929-22.127 79.779a47.973 47.973 0 1 0 18.736 52.124l34.224-123.34zm-53.922 134.471a16 16 0 1 1 19.7-11.135 16 16 0 0 1 -19.7 11.135z" fill="#de4c3b"/><circle cx="350.782" cy="321.409" fill="#de4c3b" r="24"/></svg>