<svg height="511pt" viewBox="-44 0 511 511.97921" width="511pt" xmlns="http://www.w3.org/2000/svg"><path d="m.488281 170.664062h305.402344v260.5h-305.402344zm0 0" fill="#85bc94"/><path d="m.488281 170.664062h305.402344v224.570313h-305.402344zm0 0" fill="#99d8aa"/><path d="m252.734375 424.285156 23.503906-27.171875 43.464844 37.59375-23.503906 27.175781zm0 0" fill="#da922a"/><path d="m287.035156 453.960938 85.664063-99.035157 27.171875 23.507813-85.664063 99.03125zm0 0" fill="#f3af3e"/><g fill="#b3e4e8"><path d="m72.347656 125.753906h17.964844v17.964844h-17.964844zm0 0"/><path d="m36.417969 107.789062h17.964843v35.929688h-17.964843zm0 0"/><path d="m.488281 89.824219h17.964844v53.894531h-17.964844zm0 0"/><path d="m296.90625 89.824219h17.964844v53.894531h-17.964844zm0 0"/><path d="m225.046875 125.753906h17.964844v17.964844h-17.964844zm0 0"/><path d="m260.976562 107.789062h17.964844v35.929688h-17.964844zm0 0"/></g><path d="m.488281 170.664062h305.402344v188.640626h-305.402344zm0 0" fill="#85bc94"/><path d="m207.085938 53.894531c0 29.765625-24.132813 53.894531-53.894532 53.894531-29.765625 0-53.894531-24.128906-53.894531-53.894531s24.128906-53.894531 53.894531-53.894531c29.761719 0 53.894532 24.128906 53.894532 53.894531zm0 0" fill="#f3af3e"/><path d="m255.589844 231.746094c-8.511719-6.371094-14.941406-15.125-18.46875-25.152344h-167.84375c-5.429688 15.347656-17.507813 27.417969-32.859375 32.839844v51.082031c15.335937 5.4375 27.394531 17.507813 32.8125 32.851563h167.890625c5.421875-15.351563 17.492187-27.429688 32.839844-32.859376v-51.054687c-5.15625-1.820313-10.003907-4.421875-14.371094-7.707031zm0 0" fill="#99d8aa"/><path d="m151.042969 80.714844c-.359375 0-.71875 0-1.078125-.0625-9.554688-1.160156-17.769532-7.320313-21.558594-16.167969-1.949219-4.5625.171875-9.84375 4.734375-11.792969 4.5625-1.949218 9.84375.167969 11.792969 4.734375.617187 1.453125 1.609375 2.71875 2.875 3.664063 1.261718.941406 2.75 1.539062 4.3125 1.734375 4.925781.585937 8.445312 5.054687 7.859375 9.980469-.539063 4.519531-4.375 7.925781-8.929688 7.921874zm0 0" fill="#ea9d2d"/><path d="m169.71875 55.816406c-3.597656-.003906-6.84375-2.148437-8.257812-5.453125-.628907-1.449219-1.625-2.714843-2.890626-3.664062-1.257812-.945313-2.742187-1.546875-4.300781-1.734375-4.941406-.453125-8.578125-4.824219-8.128906-9.765625.453125-4.9375 4.824219-8.578125 9.765625-8.125.167969.015625.332031.035156.5.0625 9.558594 1.148437 17.773438 7.3125 21.558594 16.167969 1.953125 4.558593-.160156 9.839843-4.71875 11.792968-1.113282.480469-2.316406.726563-3.527344.726563zm0 0" fill="#ea9d2d"/><path d="m144.207031 251.515625h17.964844c9.921875 0 17.964844 8.042969 17.964844 17.964844s-8.042969 17.964843-17.964844 17.964843h-17.964844c-9.921875 0-17.964843-8.042968-17.964843-17.964843s8.042968-17.964844 17.964843-17.964844zm0 0" fill="#85bc94"/><path d="m162.179688 488.472656 94.019531-108.691406 27.171875 23.503906-94.019532 108.695313zm0 0" fill="#f3af3e"/><path d="m423.660156 405.894531-81.515625-70.519531 81.890625-12.296875zm0 0" fill="#f3af3e"/></svg>