<svg height="512pt" viewBox="0 -37 512.00039 512" width="512pt" xmlns="http://www.w3.org/2000/svg"><path d="m364.453125 203.539062c-8.777344-54.847656-60.355469-92.195312-115.199219-83.417968-54.847656 8.777344-92.195312 60.355468-83.417968 115.199218 8.777343 54.847657 60.351562 92.191407 115.195312 83.417969 54.847656-8.773437 92.195312-60.351562 83.421875-115.195312 0-.003907 0-.003907 0-.003907zm-94.976563 42.972657c-14.957031 2.386719-29.023437-7.800781-31.414062-22.757813-2.390625-14.960937 7.800781-29.023437 22.757812-31.414062 14.957032-2.390625 29.023438 7.796875 31.414063 22.753906 2.390625 14.960938-7.796875 29.023438-22.757813 31.417969 0-.003907 0 0 0 0zm0 0" fill="#f7ba61"/><path d="m364.453125 203.539062c-8.777344-54.847656-60.355469-92.195312-115.199219-83.417968-54.847656 8.777344-92.195312 60.355468-83.417968 115.199218 8.777343 54.847657 60.351562 92.191407 115.195312 83.417969 54.847656-8.773437 92.195312-60.351562 83.421875-115.195312 0-.003907 0-.003907 0-.003907zm-94.976563 42.972657c-14.957031 2.386719-29.023437-7.800781-31.414062-22.757813-2.390625-14.960937 7.800781-29.023437 22.757812-31.414062 14.957032-2.390625 29.023438 7.796875 31.414063 22.753906 2.390625 14.960938-7.796875 29.023438-22.757813 31.417969 0-.003907 0 0 0 0zm0 0" fill="#f7ba61"/><path d="m393.144531 27.429688c0 10.097656-8.1875 18.285156-18.289062 18.285156-10.097657 0-18.285157-8.1875-18.285157-18.285156 0-10.101563 8.1875-18.285157 18.285157-18.285157 10.101562 0 18.289062 8.183594 18.289062 18.285157zm0 0" fill="#ea6b65"/><path d="m420.570312 0h91.429688v18.285156h-91.429688zm0 0" fill="#cdcdcd"/><path d="m420.570312 36.570312h73.144532v18.285157h-73.144532zm0 0" fill="#cdcdcd"/><path d="m365.714844 411.429688c0 10.097656-8.1875 18.285156-18.285156 18.285156-10.101563 0-18.285157-8.1875-18.285157-18.285156 0-10.101563 8.183594-18.285157 18.285157-18.285157 10.097656 0 18.285156 8.183594 18.285156 18.285157zm0 0" fill="#8dc79d"/><path d="m393.144531 384h91.425781v18.285156h-91.425781zm0 0" fill="#cdcdcd"/><path d="m393.144531 420.570312h73.140625v18.285157h-73.140625zm0 0" fill="#cdcdcd"/><path d="m36.570312 100.570312c0 10.101563-8.1875 18.285157-18.285156 18.285157s-18.285156-8.183594-18.285156-18.285157c0-10.097656 8.1875-18.285156 18.285156-18.285156s18.285156 8.1875 18.285156 18.285156zm0 0" fill="#f7ba61"/><g fill="#cdcdcd"><path d="m64 73.144531h91.429688v18.285157h-91.429688zm0 0"/><path d="m64 109.714844h73.144531v18.285156h-73.144531zm0 0"/><path d="m64 347.429688h91.429688v18.285156h-91.429688zm0 0"/><path d="m64 384h73.144531v18.285156h-73.144531zm0 0"/></g><path d="m0 356.570312h36.570312v36.574219h-36.570312zm0 0" fill="#6cbae5"/><path d="m291.300781 211.585938 109.449219-32.84375c-17.972656-59.875-73.089844-100.875-135.605469-100.871094v114.21875c12.070313-.003906 22.710938 7.925781 26.15625 19.496094zm0 0" fill="#ea6b65"/><path d="m238.0625 223.761719c-.667969-4.351563-.265625-8.804688 1.179688-12.964844l-108.5-36.167969c-13.476563 40.316406-8.105469 84.554688 14.628906 120.476563l96.59375-61.046875c-1.988282-3.132813-3.316406-6.632813-3.902344-10.296875zm0 0" fill="#6cbae5"/><path d="m287.753906 234.851562c-3.273437 4.804688-7.992187 8.4375-13.46875 10.378907l38.308594 107.746093c28.371094-9.921874 52.757812-28.789062 69.488281-53.757812zm0 0" fill="#8dc79d"/></svg>