<?xml version="1.0" standalone="no"?>
<!DOCTYPE svg PUBLIC "-//W3C//DTD SVG 20010904//EN"
 "http://www.w3.org/TR/2001/REC-SVG-20010904/DTD/svg10.dtd">
<svg version="1.0" xmlns="http://www.w3.org/2000/svg"
 width="471.000000pt" height="471.000000pt" viewBox="0 0 471.000000 471.000000"
 preserveAspectRatio="xMidYMid meet">
<metadata>
Created by potrace 1.11, written by Peter Selinger 2001-2013
</metadata>
<g transform="translate(0.000000,471.000000) scale(0.100000,-0.100000)"
fill="#000000" stroke="none">
<path d="M2149 4566 c-2 -2 -33 -6 -69 -10 -36 -3 -76 -8 -90 -11 -13 -2 -40
-7 -60 -10 -20 -3 -88 -19 -152 -35 -765 -193 -1381 -787 -1607 -1550 -29 -95
-57 -222 -67 -300 -3 -19 -7 -48 -10 -65 -10 -51 -13 -437 -4 -500 4 -33 11
-85 15 -115 16 -127 85 -379 141 -513 37 -88 120 -251 167 -327 147 -236 398
-507 599 -646 l40 -28 19 24 c11 14 40 54 64 89 l43 63 -71 54 c-326 246 -585
609 -711 997 -32 97 -64 233 -72 301 -4 28 -8 54 -10 57 -5 10 -17 178 -18
254 0 96 16 305 28 361 4 16 9 43 12 59 55 310 251 704 470 945 200 221 476
426 684 508 111 44 439 150 813 262 183 55 341 104 352 109 19 9 18 10 -5 11
-14 1 -34 4 -45 6 -25 7 -450 16 -456 10z"/>
<path d="M3265 4370 c-161 -52 -522 -166 -725 -230 -91 -28 -190 -60 -220 -70
-64 -21 -403 -129 -602 -192 -76 -24 -138 -45 -138 -48 0 -3 8 -6 18 -7 9 -1
105 -13 212 -28 107 -14 219 -29 248 -32 29 -3 55 -10 58 -14 3 -5 1 -9 -4 -9
-12 0 -219 -157 -299 -227 -396 -346 -662 -798 -709 -1203 -3 -30 -9 -59 -12
-65 -3 -7 -1 -7 6 0 5 6 33 53 62 105 29 52 65 114 81 138 16 24 29 45 29 48
0 10 259 367 279 384 3 3 35 39 70 80 174 205 585 580 655 598 43 11 86 3 86
-17 0 -47 -136 -192 -315 -336 -61 -49 -180 -168 -301 -300 -168 -185 -260
-302 -374 -475 -236 -359 -280 -664 -123 -850 51 -62 149 -111 288 -146 63
-16 236 -12 324 7 184 40 384 137 531 259 25 20 88 66 140 102 263 181 481
298 558 298 23 0 24 -3 19 -37 -14 -85 -137 -298 -276 -477 -213 -275 -570
-619 -821 -791 -119 -82 -167 -123 -201 -174 -34 -52 -36 -79 -9 -114 18 -23
23 -24 61 -16 54 13 106 39 213 111 101 68 368 274 386 298 3 3 29 25 59 49
42 32 61 41 85 39 55 -5 44 -32 -53 -134 -126 -131 -172 -216 -142 -263 15
-23 85 -17 136 14 58 33 166 142 236 235 44 60 57 71 78 68 38 -4 38 -42 -1
-120 -38 -76 -36 -120 7 -140 37 -17 70 3 155 90 275 282 454 596 519 913 19
93 21 102 28 169 16 149 2 445 -19 409 -2 -2 -18 -49 -37 -104 -54 -161 -143
-376 -202 -487 -64 -122 -85 -159 -125 -221 -90 -140 -218 -287 -248 -287 -7
0 -20 6 -31 13 -35 26 -15 84 78 224 180 272 316 546 417 843 56 164 44 287
-37 362 -52 48 -109 72 -198 83 -89 11 -173 18 -195 16 -48 -4 -135 -33 -216
-71 -79 -38 -327 -197 -348 -224 -6 -8 -69 -57 -141 -110 -71 -52 -134 -99
-140 -103 -72 -56 -227 -137 -310 -163 -85 -26 -180 -32 -223 -14 -60 25 -78
131 -38 229 l16 40 -20 -27 c-50 -65 -57 -67 -14 -3 97 144 187 249 374 435
204 203 442 404 647 545 90 62 121 63 130 2 5 -30 32 -186 38 -217 3 -14 8
-40 11 -59 l7 -35 20 25 c33 41 136 257 269 564 86 199 97 225 108 250 20 44
260 627 260 631 0 7 -13 4 -135 -36z"/>
<path d="M3633 4027 l-41 -102 56 -49 c298 -258 514 -577 628 -926 29 -90 60
-208 69 -270 4 -25 9 -54 11 -65 24 -116 24 -446 0 -604 -97 -637 -492 -1198
-1057 -1499 -116 -61 -119 -64 -144 -113 -14 -26 -53 -81 -87 -124 -35 -42
-73 -89 -86 -105 l-23 -28 68 20 c90 27 270 102 356 150 39 21 72 38 74 38 11
0 234 154 298 204 106 86 251 230 341 341 88 108 226 325 281 445 92 198 151
386 187 595 24 137 30 225 30 395 -2 260 -31 441 -114 691 -111 337 -292 632
-545 885 -77 77 -246 224 -258 224 -1 0 -21 -46 -44 -103z"/>
<path d="M2736 659 c-34 -21 -176 -173 -182 -197 -10 -37 4 -68 39 -87 50 -27
77 -15 140 62 30 38 66 82 81 98 14 17 26 42 26 56 0 52 -62 93 -104 68z"/>
<path d="M2185 518 c-102 -90 -115 -105 -115 -134 0 -36 38 -75 68 -69 9 2 20
4 24 4 10 1 200 158 221 183 24 28 21 65 -8 93 -42 43 -64 34 -190 -77z"/>
<path d="M1508 455 c-87 -71 -118 -102 -123 -124 -7 -35 5 -62 37 -83 35 -23
71 -6 192 87 133 102 147 128 100 184 -45 54 -72 45 -206 -64z"/>
</g>
</svg>
